<svg width="90" height="92" viewBox="0 0 90 92" fill="none" xmlns="http://www.w3.org/2000/svg">
<path d="M50.8882 32.053L52.6629 32.3394L52.8842 32.2406L52.9939 31.9466L53.6526 30.3782L54.7523 28.2209L56.7371 25.6685L58.1722 24.1948L60.0502 22.6214L60.7137 22.2273L62.7277 26.8183C63.0653 28.0564 63.7628 30.5522 63.8518 30.6301C63.9408 30.708 64.416 33.0742 64.6425 34.2476L64.6592 38.3575C64.6608 38.7489 64.2229 40.088 64.0037 40.7087C64.2641 41.1317 64.7644 42.3887 64.6824 44.033C64.58 46.0884 64.4683 45.8932 64.0317 47.5585C63.5951 49.2238 61.9384 50.6984 61.3869 51.3857C60.9458 51.9355 58.6241 53.4519 57.5185 54.1415L54.3091 55.4267C54.4209 55.6546 54.9789 56.5787 56.3167 58.452C57.989 60.7938 57.2075 59.427 60.3292 63.8177C63.4509 68.2085 62.789 68.9941 63.9075 71.4359C65.026 73.8778 65.1448 75.8344 65.5994 78.5725C65.963 80.763 65.7663 83.2689 65.6225 84.2481C65.5501 84.6072 65.1191 85.8354 63.9746 87.8755C62.8301 89.9156 59.9591 90.8276 58.6667 91.0286C52.7555 91.2158 40.2452 91.456 37.494 90.9193C34.0549 90.2483 33.3846 88.9789 32.3826 87.9066C31.581 87.0487 31.4507 85.9207 31.4858 85.4639C31.3368 85.1709 29.8842 84.1396 25.2656 82.3579C19.4911 79.8372 15.1485 75.0599 11.3685 72.3354C8.34447 70.1558 3.78316 60.6889 1.8805 56.2279C0.56544 50.8838 -1.2079 38.2741 2.21923 30.5882C6.50314 20.9808 10.0307 16.1714 16.5523 11.6434C23.074 7.11539 24.7311 5.73864 30.4872 3.75801C36.2433 1.77739 39.6768 1.07838 43.1114 0.672934C46.5461 0.267487 50.3153 0.349956 50.6479 0.348598C50.9804 0.347241 55.3051 0.721011 58.6325 1.19671C61.96 1.6724 62.0724 2.06337 68.7316 4.09117C75.3909 6.11896 76.3953 7.77842 77.1721 7.97096C77.9488 8.1635 81.9517 11.1807 82.0629 11.2781C82.1742 11.3755 86.1783 14.6863 86.2895 14.7837C86.4008 14.8811 88.1823 16.8309 88.6301 17.9055C89.0779 18.9801 88.3056 19.864 87.9766 20.746C87.6477 21.6281 86.983 21.7286 86.4299 22.0245C85.8769 22.3203 84.5463 22.2279 84.1033 22.3275C83.7489 22.4073 82.6226 21.6486 82.1037 21.2593C79.7676 19.2464 74.7175 14.9483 73.2055 13.8585C71.3155 12.4963 66.986 10.9482 66.4306 10.6569C65.8752 10.3656 61.1019 8.72156 55.3339 7.76654C49.5658 6.81153 44.47 7.61518 42.0321 7.82084C39.5943 8.02651 38.3773 8.61861 36.4949 9.11558C34.989 9.51315 33.0636 10.3365 32.2891 10.6984L23.5509 15.3334C21.7464 16.8086 17.828 20.0147 16.5907 21.0374C15.044 22.3159 10.9742 30.0631 10.3143 31.338C9.65442 32.6128 8.12612 38.3925 7.90922 39.5677C7.69231 40.7429 7.72347 48.3755 7.94876 49.2553C8.129 49.9591 8.92236 52.4153 9.29651 53.5555L11.3137 58.9293L13.5471 62.9323L15.9985 66.0537C16.9636 67.1262 19.0273 69.4076 19.5616 69.9534C20.2295 70.6357 22.2303 71.9975 22.5641 72.2897C22.8311 72.5235 25.5648 74.2019 26.8983 75.012C28.0832 75.6269 30.5196 76.876 30.786 76.9532C31.0524 77.0304 31.044 76.7891 31.0065 76.6588C31.2976 75.5485 31.9013 73.191 31.9877 72.6426C32.0958 71.9572 32.2054 71.6632 32.6424 70.0957C32.992 68.8417 33.6661 67.4168 33.9594 66.8611C34.8043 65.6507 36.5379 63.0929 36.7131 62.5442C36.8882 61.9955 38.4756 59.8296 39.2474 58.8153L41.7825 55.2821C40.6351 54.7975 37.8732 53.478 36.0052 52.0764C34.1372 50.6749 33.2236 49.5435 33.0003 49.153L32.2184 47.6884C32.0689 47.2649 31.7243 46.1247 31.5421 44.9512C31.3145 43.4843 31.5346 43.0919 31.5342 42.9941C31.5338 42.8962 31.7523 42.1125 31.8615 41.7206C31.9708 41.3287 32.3009 40.7403 32.3001 40.5445C32.2993 40.3488 31.9644 39.7631 31.7415 39.4704C31.5186 39.1777 31.7263 35.7519 31.7207 34.382C31.7162 33.286 32.0809 32.0972 32.2637 31.6398L32.5915 30.4642C32.7368 29.8438 33.0708 28.3877 33.2446 27.5258C33.4184 26.664 34.0486 25.3371 34.3419 24.7814C34.5616 24.2912 35.0231 23.2912 35.1114 23.2125C35.1998 23.1339 35.3675 22.5917 35.4404 22.3305L35.7729 22.3291L36.997 23.4984L39.5569 26.0322L40.8939 27.6903L41.7863 29.0566L42.4561 30.2282L42.4577 30.6196L42.7903 30.6182L42.7927 31.2054L43.0144 31.2045L43.0168 31.7916L43.2385 31.7907L43.2409 32.3778L44.3493 32.3733L45.1241 32.0766L45.5675 32.0747L49.8905 32.0571L50.8882 32.053Z" fill="black"/>
</svg>
